<?xml version="1.0" standalone="no"?>
<!DOCTYPE svg PUBLIC "-//W3C//DTD SVG 20010904//EN"
 "http://www.w3.org/TR/2001/REC-SVG-20010904/DTD/svg10.dtd">
<svg version="1.0" xmlns="http://www.w3.org/2000/svg"
 width="200.000000pt" height="200.000000pt" viewBox="0 0 200.000000 200.000000"
 preserveAspectRatio="xMidYMid meet">
<metadata>
Created by potrace 1.14, written by Peter Selinger 2001-2017
</metadata>
<g transform="translate(0.000000,200.000000) scale(0.100000,-0.100000)"
fill="#000000" stroke="none">
<path d="M825 1839 c-110 -25 -238 -80 -330 -142 -53 -37 -180 -170 -220 -232
-51 -79 -101 -199 -119 -283 -19 -90 -18 -282 1 -368 54 -241 216 -454 433
-571 285 -153 651 -125 908 69 86 65 142 126 206 223 111 170 154 355 131 570
-25 233 -170 468 -370 601 -85 56 -144 84 -255 119 -62 20 -316 29 -385 14z
m360 -124 c126 -38 212 -87 313 -180 96 -88 173 -216 208 -345 17 -63 29 -293
16 -315 -3 -5 -7 -22 -9 -37 -5 -51 -62 -183 -107 -249 -227 -340 -677 -434
-1016 -214 -214 140 -336 360 -338 612 -2 215 78 406 230 549 29 28 67 59 83
69 17 11 32 22 35 25 20 21 189 88 245 97 17 3 32 6 34 8 11 12 253 -4 306
-20z"/>
<path d="M832 1681 c-118 -29 -230 -91 -319 -175 -96 -91 -177 -223 -197 -322
-3 -11 -9 -39 -15 -64 -24 -104 -7 -268 43 -389 49 -122 149 -243 261 -318 63
-42 169 -88 223 -97 18 -4 47 -9 65 -12 17 -3 64 -6 102 -6 379 0 693 316 693
698 0 46 -4 102 -10 126 -5 24 -12 54 -14 68 -7 38 -90 201 -119 235 -113 131
-205 194 -355 245 -91 30 -258 35 -358 11z m58 -440 c10 -1 15 -13 17 -41 1
-35 -2 -40 -20 -41 -12 0 -86 -1 -164 -2 -158 -1 -146 5 -144 -71 0 -21 2 -41
4 -43 3 -2 76 -5 163 -6 l159 -2 0 -37 c1 -26 -4 -39 -15 -42 -8 -2 -81 -3
-162 -2 -125 1 -148 -1 -149 -14 -4 -105 -5 -100 21 -101 14 0 88 -2 164 -2
l139 -2 2 -30 c3 -55 4 -55 -149 -55 l-143 0 -60 61 -61 62 -1 124 -1 124 52
56 c29 30 61 58 70 62 13 5 190 6 278 2z m586 0 c7 -1 10 -60 10 -186 l-1
-186 -49 -58 -48 -59 -62 71 c-33 40 -63 74 -66 77 -3 3 -45 51 -94 108 -48
56 -89 102 -91 102 -1 0 -3 -75 -3 -167 0 -93 -1 -174 -1 -180 -1 -8 -16 -13
-41 -13 l-40 0 0 189 0 189 48 56 47 57 50 -54 c28 -30 59 -65 70 -78 119
-141 189 -218 193 -215 2 3 4 83 4 178 l1 173 31 -2 c17 -1 36 -2 42 -2z"/>
</g>
</svg>
